PathFileType	4	(X/Y/Z)	C:\Users\italobelli\Desktop\GitHub\PTbot_officialCBL\Personal_Results\FLX01_noisy1.trc
DataRate	CameraRate	NumFrames	NumMarkers	Units	OrigDataRate	OrigDataStartFrame	OrigNumFrames
106.533333	106.533333	25	9	m	106.533333	501	800
Frame#	Time		gu		centelbow		EpL		centpxt8		centijc7		ij		ts		aa		ai
			X1	Y1	Z1	X2	Y2	Z2	X3	Y3	Z3	X4	Y4	Z4	X5	Y5	Z5	X6	Y6	Z6	X7	Y7	Z7	X8	Y8	Z8	X9	Y9	Z9

501	4.6934	-0.087994	0.05592	0.13069	0.16178	0.064427	0.22038	0.15338	0.094634	0.22848	-0.046816	-0.15316	-0.008669	-0.046816	0.031938	-0.008669	0	0	0	-0.15597	-0.0028797	0.054082	-0.11493	0.067988	0.13904	-0.13248	-0.089703	0.12115
502	4.7028	-0.087552	0.055254	0.13135	0.16177	0.059413	0.22124	0.15383	0.089628	0.22965	-0.046816	-0.15316	-0.008669	-0.046816	0.031938	-0.008669	0	0	0	-0.1559	-0.0025315	0.054037	-0.11471	0.067325	0.13969	-0.13267	-0.090087	0.12018
503	4.7121	-0.087106	0.054569	0.13203	0.16171	0.05437	0.22209	0.15422	0.084586	0.23082	-0.046816	-0.15316	-0.008669	-0.046816	0.031938	-0.008669	0	0	0	-0.15582	-0.0021823	0.053992	-0.11449	0.066652	0.14035	-0.13286	-0.09047	0.11921
504	4.7215	-0.086656	0.053868	0.1327	0.1616	0.049303	0.22294	0.15458	0.079513	0.23198	-0.046816	-0.15316	-0.008669	-0.046816	0.031938	-0.008669	0	0	0	-0.15574	-0.0018325	0.053947	-0.11427	0.065969	0.14101	-0.13305	-0.090849	0.11824
505	4.7309	-0.086204	0.05315	0.13337	0.16144	0.044217	0.22379	0.15489	0.074414	0.23314	-0.046816	-0.15316	-0.008669	-0.046816	0.031938	-0.008669	0	0	0	-0.15566	-0.0014823	0.053902	-0.11406	0.065278	0.14167	-0.13325	-0.091226	0.11726
506	4.7403	-0.08575	0.052418	0.13405	0.16124	0.039118	0.22463	0.15515	0.069295	0.23429	-0.046816	-0.15316	-0.008669	-0.046816	0.031938	-0.008669	0	0	0	-0.15557	-0.0011318	0.053858	-0.11384	0.064579	0.14232	-0.13344	-0.091599	0.11627
507	4.7497	-0.085296	0.051672	0.13472	0.16099	0.03401	0.22547	0.15537	0.064161	0.23543	-0.046816	-0.15316	-0.008669	-0.046816	0.031938	-0.008669	0	0	0	-0.15549	-0.00078146	0.053813	-0.11362	0.063874	0.14298	-0.13363	-0.091968	0.11528
508	4.7591	-0.08484	0.050915	0.13539	0.16069	0.028898	0.2263	0.15554	0.059016	0.23657	-0.046816	-0.15316	-0.008669	-0.046816	0.031938	-0.008669	0	0	0	-0.1554	-0.00043137	0.053769	-0.11341	0.063163	0.14363	-0.13382	-0.092332	0.11429
509	4.7685	-0.084385	0.050145	0.13606	0.16035	0.023789	0.22713	0.15567	0.053868	0.23769	-0.046816	-0.15316	-0.008669	-0.046816	0.031938	-0.008669	0	0	0	-0.15531	-8.1805e-05	0.053726	-0.1132	0.062446	0.14428	-0.13402	-0.09269	0.1133
510	4.7778	-0.083931	0.049366	0.13673	0.15996	0.018687	0.22794	0.15575	0.04872	0.23879	-0.046816	-0.15316	-0.008669	-0.046816	0.031938	-0.008669	0	0	0	-0.15522	0.00026699	0.053683	-0.11299	0.061726	0.14493	-0.13421	-0.093042	0.1123
511	4.7872	-0.083479	0.048579	0.13739	0.15952	0.013596	0.22874	0.15578	0.043578	0.23989	-0.046816	-0.15316	-0.008669	-0.046816	0.031938	-0.008669	0	0	0	-0.15512	0.00061477	0.053641	-0.11278	0.061003	0.14557	-0.1344	-0.093388	0.11131
512	4.7966	-0.08303	0.047783	0.13805	0.15903	0.008523	0.22954	0.15577	0.038448	0.24096	-0.046816	-0.15316	-0.008669	-0.046816	0.031938	-0.008669	0	0	0	-0.15503	0.00096131	0.053599	-0.11257	0.060277	0.1462	-0.1346	-0.093726	0.11032
513	4.806	-0.082583	0.046981	0.1387	0.1585	0.0034724	0.23031	0.1557	0.033335	0.24201	-0.046816	-0.15316	-0.008669	-0.046816	0.031938	-0.008669	0	0	0	-0.15493	0.0013064	0.053558	-0.11236	0.05955	0.14683	-0.13479	-0.094057	0.10934
514	4.8154	-0.08214	0.046174	0.13935	0.15793	-0.0015507	0.23107	0.1556	0.028244	0.24305	-0.046816	-0.15316	-0.008669	-0.046816	0.031938	-0.008669	0	0	0	-0.15483	0.0016497	0.053518	-0.11216	0.058823	0.14745	-0.13499	-0.094379	0.10835
515	4.8248	-0.081702	0.045362	0.13999	0.15731	-0.0065411	0.23182	0.15544	0.023181	0.24406	-0.046816	-0.15316	-0.008669	-0.046816	0.031938	-0.008669	0	0	0	-0.15473	0.001991	0.053479	-0.11195	0.058095	0.14806	-0.13518	-0.094691	0.10738
516	4.8342	-0.08127	0.044548	0.14063	0.15664	-0.011494	0.23255	0.15523	0.01815	0.24505	-0.046816	-0.15316	-0.008669	-0.046816	0.031938	-0.008669	0	0	0	-0.15463	0.0023302	0.053441	-0.11175	0.05737	0.14866	-0.13538	-0.094995	0.10641
517	4.8436	-0.080843	0.043732	0.14125	0.15593	-0.016403	0.23325	0.15498	0.013158	0.24601	-0.046816	-0.15316	-0.008669	-0.046816	0.031938	-0.008669	0	0	0	-0.15453	0.0026669	0.053404	-0.11154	0.056646	0.14926	-0.13558	-0.095287	0.10545
518	4.8529	-0.080423	0.042915	0.14187	0.15517	-0.021264	0.23394	0.15467	0.0082089	0.24694	-0.046816	-0.15316	-0.008669	-0.046816	0.031938	-0.008669	0	0	0	-0.15443	0.0030009	0.053367	-0.11134	0.055925	0.14984	-0.13577	-0.095569	0.1045
519	4.8623	-0.080011	0.042099	0.14247	0.15437	-0.026072	0.23461	0.15432	0.0033088	0.24784	-0.046816	-0.15316	-0.008669	-0.046816	0.031938	-0.008669	0	0	0	-0.15433	0.003332	0.053332	-0.11114	0.055208	0.15041	-0.13597	-0.09584	0.10356
520	4.8717	-0.079606	0.041284	0.14307	0.15353	-0.030822	0.23525	0.15391	-0.0015371	0.24872	-0.046816	-0.15316	-0.008669	-0.046816	0.031938	-0.008669	0	0	0	-0.15423	0.0036599	0.053299	-0.11095	0.054496	0.15097	-0.13617	-0.096098	0.10263
521	4.8811	-0.079211	0.040473	0.14366	0.15264	-0.035508	0.23586	0.15346	-0.0063235	0.24956	-0.046816	-0.15316	-0.008669	-0.046816	0.031938	-0.008669	0	0	0	-0.15412	0.0039844	0.053266	-0.11075	0.05379	0.15151	-0.13637	-0.096344	0.10171
522	4.8905	-0.078825	0.039665	0.14423	0.15171	-0.040125	0.23645	0.15296	-0.011045	0.25036	-0.046816	-0.15316	-0.008669	-0.046816	0.031938	-0.008669	0	0	0	-0.15402	0.0043053	0.053235	-0.11055	0.05309	0.15204	-0.13656	-0.096576	0.10081
523	4.8999	-0.07845	0.038863	0.14479	0.15074	-0.044668	0.23701	0.1524	-0.015697	0.25113	-0.046816	-0.15316	-0.008669	-0.046816	0.031938	-0.008669	0	0	0	-0.15392	0.0046223	0.053205	-0.11036	0.052398	0.15256	-0.13676	-0.096794	0.099922
524	4.9093	-0.078085	0.038067	0.14534	0.14972	-0.049132	0.23754	0.15179	-0.020273	0.25186	-0.046816	-0.15316	-0.008669	-0.046816	0.031938	-0.008669	0	0	0	-0.15382	0.0049352	0.053177	-0.11017	0.051714	0.15306	-0.13696	-0.096998	0.099051
525	4.9186	-0.077733	0.037278	0.14587	0.14866	-0.053512	0.23805	0.15113	-0.024768	0.25255	-0.046816	-0.15316	-0.008669	-0.046816	0.031938	-0.008669	0	0	0	-0.15371	0.0052437	0.05315	-0.10997	0.051039	0.15354	-0.13716	-0.097187	0.098197
